<?xml version="1.0" standalone="no"?><!DOCTYPE svg PUBLIC "-//W3C//DTD SVG 1.1//EN" "http://www.w3.org/Graphics/SVG/1.1/DTD/svg11.dtd"><svg t="1565601195545" class="icon" viewBox="0 0 1024 1024" version="1.1" xmlns="http://www.w3.org/2000/svg" p-id="1120" xmlns:xlink="http://www.w3.org/1999/xlink" width="200" height="200"><defs><style type="text/css"></style></defs><path d="M995.029333 95.210667l-363.733333 839.317333a49.066667 49.066667 0 0 1-69.610667 0L346.346667 690.368a49.408 49.408 0 0 1 0-69.76l470.869333-403.925333-556.394667 366.933333-232.106666-185.92a50.624 50.624 0 0 1-6.4-30.122667l-0.768-0.746666 0.938666-0.256a50.496 50.496 0 0 1 24.704-38.144L968.128 56.469333a23.210667 23.210667 0 0 1 10.666667-2.794666 23.978667 23.978667 0 0 1 16.234666 41.536z m-82.858666 15.829333L104.149333 354.346667c-24.213333 14.058667-49.493333 13.845333-13.098666 46.933333l160.938666 120.384L888.384 163.669333l-484.394667 475.733334c-21.674667 17.408-26.154667 27.328 6.250667 59.733333l152.554667 173.589333c28.373333 25.898667 19.349333 39.616 49.728-1.322666L935.808 145.066667c11.008-19.328 19.733333-45.952-23.637333-34.026667z m-662.4 614.4l102.506666 108.138667a32.149333 32.149333 0 0 1 0 45.248l-102.506666 81.706666a50.048 50.048 0 0 1-57.493334 1.557334V723.925333a48.810667 48.810667 0 0 1 57.493334 1.6zM234.666667 902.741333a23.701333 23.701333 0 0 0 27.221333-0.746666l53.333333-43.328c5.866667-5.909333 5.866667-2.837333 0-8.746667l-53.333333-55.850667c-5.952-5.909333-21.333333-19.349333-27.221333-13.418666v122.090666z" fill="#333333" p-id="1121"></path></svg>